<?xml version="1.0" encoding="UTF-8" standalone="no"?>
<svg
   xmlns:dc="http://purl.org/dc/elements/1.1/"
   xmlns:cc="http://creativecommons.org/ns#"
   xmlns:rdf="http://www.w3.org/1999/02/22-rdf-syntax-ns#"
   xmlns:svg="http://www.w3.org/2000/svg"
   xmlns="http://www.w3.org/2000/svg"
   xmlns:sodipodi="http://sodipodi.sourceforge.net/DTD/sodipodi-0.dtd"
   xmlns:inkscape="http://www.inkscape.org/namespaces/inkscape"
   inkscape:version="1.0 (4035a4f, 2020-05-01)"
   sodipodi:docname="fat_tree.png.svg"
   viewBox="0 0 192 200"
   height="200"
   width="192"
   id="svg78"
   version="1.1">
  <metadata
     id="metadata84">
    <rdf:RDF>
      <cc:Work
         rdf:about="">
        <dc:format>image/svg+xml</dc:format>
        <dc:type
           rdf:resource="http://purl.org/dc/dcmitype/StillImage" />
        <dc:title></dc:title>
      </cc:Work>
    </rdf:RDF>
  </metadata>
  <defs
     id="defs82" />
  <sodipodi:namedview
     inkscape:current-layer="g86"
     inkscape:window-maximized="0"
     inkscape:window-y="25"
     inkscape:window-x="0"
     inkscape:cy="68.081494"
     inkscape:cx="7.2054329"
     inkscape:zoom="2.945"
     showgrid="false"
     id="namedview80"
     inkscape:window-height="667"
     inkscape:window-width="1256"
     inkscape:pageshadow="2"
     inkscape:pageopacity="0"
     guidetolerance="10"
     gridtolerance="10"
     objecttolerance="10"
     borderopacity="1"
     bordercolor="#666666"
     pagecolor="#ffffff" />
  <g
     id="g86"
     inkscape:label="Image"
     inkscape:groupmode="layer">
    <path
       id="path90"
       d="m 55.133661,197.20589 c -1.35,-1.35 -2.45454,-3.39545 -2.45454,-4.54545 0,-1.15 1.10454,-3.19545 2.45454,-4.54545 2.4021,-2.4021 2.79742,-2.45455 18.500001,-2.45455 H 89.679117 V 165.42546 145.19048 L 77.944749,133.42546 C 66.857021,122.30877 65.989091,121.66035 62.194751,121.65889 c -2.2086,-8.6e-4 -5.59063,-0.79306 -7.51563,-1.76046 -3.36085,-1.68898 -3.70873,-1.6833 -8.75,0.14286 -3.83492,1.38917 -5.25,2.41615 -5.25,3.81012 0,5.44292 -7.5147,13.21334 -13.8065,14.27634 -15.19022,2.56637 -26.3563098,-14.12495 -17.8277298,-26.64928 3.1626498,-4.64438 6.8555698,-6.97594 11.9604798,-7.55134 5.65767,-0.6377 8.32797,0.009 12.93245,3.13413 3.19699,2.16953 4.02249,2.32568 7.1769,1.35756 3.22344,-0.9893 3.5644,-1.4384 3.5644,-4.69492 0,-3.22851 -1.02623,-4.62336 -9.92125,-13.485006 l -9.92126,-9.884024 -6.40759,-0.09721 c -5.43751,-0.0825 -6.97987,-0.53383 -10.1875898,-2.981131 -4.16686,-3.179056 -7.51839,-9.471703 -7.51839,-14.116088 0,-8.034474 7.06515,-16.00495 15.1719898,-17.116115 6.13899,-0.841443 10.93497,0.93384 15.16161,5.612231 3.8308,4.240234 5.19843,9.000583 4.26425,14.842642 -0.58376,3.650641 -0.3659,3.975468 8.76463,13.06803 l 9.36326,9.324334 3.69015,-1.21786 c 7.89289,-2.604886 17.967783,1.979201 21.164419,9.629826 1.657115,3.966031 1.791077,10.712381 0.269182,13.556071 -0.974053,1.82003 -0.375219,2.79904 5,8.17425 l 6.106585,6.10659 V 111.5885 98.03656 l -3.059784,-2.262198 c -4.826644,-3.568493 -6.932229,-7.85951 -6.936478,-14.135999 l -0.0037,-5.522078 -8.25,-8.173763 -8.250004,-8.173763 -5.5,0.130199 c -11.14782,0.263898 -18.5,-6.586945 -18.5,-17.238517 0,-10.918325 7.38221,-17.610569 18.53622,-16.803761 10.3117,0.745881 17.036017,8.964318 15.644017,19.120062 l -0.59158,4.316047 8.455674,8.411748 8.455673,8.411748 V 49.956457 33.796629 l -2.929499,-2.085987 c -9.88215,-7.036712 -9.743622,-22.26753 0.262757,-28.8894382 8.320198,-5.506047 20.953117,-2.399078 25.010457,6.1511292 3.63511,7.660414 1.21051,18.107324 -5.14958,22.188108 l -3.11709,2 -0.0385,16.477922 -0.0385,16.477922 8.45567,-8.411748 8.45568,-8.411748 -0.59158,-4.316047 c -1.39204,-10.155744 5.33227,-18.374181 15.64397,-19.120062 11.15401,-0.806808 18.53622,5.885436 18.53622,16.803761 0,10.684871 -7.35749,17.514118 -18.57409,17.240532 l -5.5741,-0.135959 -8.31043,8.353828 c -7.09442,7.131468 -8.23667,8.739685 -7.80633,10.990844 0.93292,4.88028 -1.13841,11.120787 -4.95947,14.941845 -1.9849,1.9849 -3.98391,3.60891 -4.44225,3.60891 -0.45833,0 -0.83333,6.182999 -0.83333,13.739999 v 13.74 l 6.10659,-6.10659 c 5.37521,-5.37521 5.97405,-6.35422 5,-8.17425 -1.5219,-2.84369 -1.38794,-9.59004 0.26918,-13.556071 3.19663,-7.650625 13.27153,-12.234712 21.16441,-9.629826 l 3.69016,1.21786 9.36326,-9.324334 c 9.13053,-9.092562 9.34839,-9.417389 8.76463,-13.06803 -0.93419,-5.842059 0.43345,-10.602408 4.26424,-14.842642 4.22665,-4.678391 9.02263,-6.453674 15.16162,-5.612231 8.10683,1.111165 15.17199,9.081641 15.17199,17.116115 0,4.644385 -3.35154,10.937032 -7.51839,14.116088 -3.20773,2.447301 -4.75008,2.89863 -10.18759,2.981127 l -6.4076,0.09721 -9.92125,9.884024 c -8.89502,8.86165 -9.92125,10.2565 -9.92125,13.48501 0,3.25652 0.34096,3.70562 3.5644,4.69492 3.15441,0.96812 3.97991,0.81197 7.17689,-1.35756 4.60449,-3.12469 7.27479,-3.77183 12.93246,-3.13413 5.1049,0.5754 8.79783,2.90696 11.96047,7.55134 8.52858,12.52433 -2.6375,29.21565 -17.82772,26.64928 -6.30352,-1.06497 -13.8065,-8.83415 -13.8065,-14.29633 0,-1.25973 -1.12686,-2.3495 -3.25,-3.14301 -1.7875,-0.66807 -4.10932,-1.53754 -5.15961,-1.93215 -1.15682,-0.43464 -3.30977,-0.004 -5.46144,1.09335 -1.95351,0.99596 -5.37622,1.81083 -7.60602,1.81083 -3.84426,0 -4.66181,0.60921 -15.78856,11.76502 l -11.73441,11.76502 v 20.23498 20.23498 h 16.42742 16.42742 l 2.07258,2.63486 c 2.72177,3.46016 2.61667,5.91196 -0.38197,8.91059 l -2.45454,2.45455 H 96.679117 57.588211 Z m -28.02597,-73.11688 c 1.89673,-1.89673 1.99031,-3.52643 0.32143,-5.5977 -1.92919,-2.39435 -4.31328,-2.82506 -6.6352,-1.19873 -2.3251,1.62857 -2.79242,5.29024 -0.9148,7.16786 1.68275,1.68275 5.36352,1.49362 7.22857,-0.37143 z m 146.371429,0.37143 c 3.03711,-3.03711 -0.67062,-9.46319 -4.6648,-8.08482 -1.9962,0.68887 -4.1352,3.22582 -4.1352,4.90452 0,3.50338 6.22663,5.75367 8.8,3.1803 z m -107.799999,-16.8 c 2.40751,-2.40751 2.44662,-2.91734 0.44329,-5.77749 -1.69356,-2.4179 -5.33399,-2.93181 -7.24329,-1.02251 -1.9093,1.9093 -1.3954,5.54973 1.0225,7.2433 2.86016,2.00333 3.36999,1.96421 5.7775,-0.4433 z m 67.777489,0.4433 c 2.41791,-1.69357 2.93181,-5.334 1.02251,-7.2433 -1.9093,-1.9093 -5.54973,-1.39539 -7.2433,1.02251 -2.00333,2.86015 -1.96421,3.36998 0.4433,5.77749 2.40751,2.40751 2.91734,2.44663 5.77749,0.4433 z M 100.10769,85.089012 c 0.86429,-0.864285 1.57143,-2.291352 1.57143,-3.171259 0,-2.012631 -2.872944,-5.257312 -4.654991,-5.257312 -1.779316,0 -5.345012,3.621438 -5.345012,5.428571 0,2.014525 2.796614,4.571429 5,4.571429 1.021429,0 2.564286,-0.707143 3.428573,-1.571429 z M 21.554121,66.758857 c 0.75625,-0.479027 1.375,-2.098314 1.375,-3.598416 0,-2.968209 -1.5975,-4.460766 -4.8,-4.484687 -2.62918,-0.01964 -4.45,1.815374 -4.45,4.484687 0,3.870854 4.32495,5.847104 7.875,3.598416 z M 178.47912,66.460441 c 2.78825,-2.788249 0.69002,-7.814118 -3.25,-7.784687 -3.2025,0.02392 -4.8,1.516478 -4.8,4.484687 0,4.085915 5.15206,6.19794 8.05,3.3 z M 58.744861,46.625257 c 2.88764,-1.545418 2.60769,-6.700856 -0.43925,-8.089136 -3.4745,-1.583086 -6.62649,0.371813 -6.62649,4.109814 0,4.126739 3.30859,5.990089 7.06574,3.979322 z m 80.999999,0 c 2.88764,-1.545418 2.6077,-6.700856 -0.43925,-8.089136 -3.47449,-1.583086 -6.62649,0.371813 -6.62649,4.109814 0,4.126739 3.30859,5.990089 7.06574,3.979322 z M 100.74682,19.533948 c 0.82611,-1.543602 0.84163,-2.777093 0.0566,-4.5 -1.519013,-3.333864 -6.729633,-3.333864 -8.248643,0 -1.586091,3.481136 0.371574,6.626493 4.12434,6.626493 1.964266,0 3.304645,-0.700718 4.067703,-2.126493 z"
       style="fill:#1599ab;opacity:0.99;fill-opacity:1" />
  </g>
</svg>
